<?xml version="1.0" encoding="utf-8"?>
<!-- Generator: Adobe Illustrator 27.4.1, SVG Export Plug-In . SVG Version: 6.00 Build 0)  -->
<svg version="1.1" id="Capa_1" xmlns="http://www.w3.org/2000/svg" xmlns:xlink="http://www.w3.org/1999/xlink" x="0px" y="0px"
	 viewBox="0 0 3342.6 1120.3" style="enable-background:new 0 0 3342.6 1120.3;" xml:space="preserve">
<style type="text/css">
	.st0{fill:#FE0000;stroke:#FE0000;stroke-width:48.4191;stroke-miterlimit:10;}
	.st1{fill:#FE0000;stroke:#FE0000;stroke-width:2.5484;stroke-miterlimit:10;}
</style>
<g>
	<g>
		<path class="st0" d="M956.2,1096.1H337.4L28,560.2l309.4-536h618.9l309.4,536L956.2,1096.1z M364.1,1049.8h565.4l282.7-489.7
			L929.5,70.5H364.1L81.4,560.2L364.1,1049.8z"/>
	</g>
</g>
<g>
	<path class="st1" d="M1396.8,174.4h144.9v50.8h-69.2v69.2h51.6v52.7h-51.6v86.4h69.6V484h-145.3V174.4z"/>
	<path class="st1" d="M1568.8,263.1h68.4v22.2c16.8-16.8,34-26.4,53.1-26.4c27.1,0,43.2,21.8,43.2,53.5V484h-68.4V320.4
		c0-9.2-2.7-13.8-10.7-13.8c-4.2,0-10.3,1.9-17.2,6.1V484h-68.4V263.1z"/>
	<path class="st1" d="M1765.7,418.3v-89.4c0-44.3,33.3-69.9,79.9-69.9c47,0,76.8,22.6,76.8,67.3v52h-89.1v42
		c0,14.5,5.7,19.5,12.2,19.5s14.1-2.7,14.1-17.2v-26.4h62.7v25.6c0,44.7-30.6,66.5-76.8,66.5
		C1798.9,488.2,1765.7,462.6,1765.7,418.3z M1859.7,347.2v-22.6c0-14.9-7.6-17.2-14.1-17.2c-6.1,0-12.2,4.2-12.2,19.1v20.6H1859.7z"
		/>
	<path class="st1" d="M1956,263.1h68.4v38.2c13.4-24.8,25.2-40.9,47-40.9c4.2,0,7.6,0.4,10.3,1.1v67.3c-5.7-2.7-11.8-4.6-19.5-4.6
		c-15.3,0-27.9,9.2-37.8,21.4V484H1956V263.1z"/>
	<path class="st1" d="M2099.4,516.9c0-20.6,13.8-35.2,35.6-44.7c-21-5.7-33.6-17.2-33.6-38.2c0-18,9.6-30.6,24.5-43.6
		c-13.4-12.6-20.3-31.3-20.3-55c0-49.3,29.8-76.4,83.7-76.4c22.6,0,40.9,5.4,54.3,15.3c6.5-10.3,14.9-17.6,26-22.9l8.8-4.2l15.7,31
		c-6.1,2.3-21.4,9.6-33.6,16.1c6.1,11.5,9.2,25.2,9.2,41.3c0,48.9-28.7,76.1-80.3,76.1c-16.4,0-30.6-2.7-42.4-7.3
		c-3.4,4.2-5.4,8-5.4,12.6c0,6.1,5.4,9.9,21.8,11.8l64.6,7.6c39,4.6,56.6,26.4,56.6,58.5c0,44.3-26.8,68-99.8,68
		C2132.3,562.8,2099.4,547.5,2099.4,516.9z M2238.1,497.8c0-10.3-8.4-13-34-15.7l-42.8-4.6c-7.3,5-12.2,10.7-12.2,18.7
		c0,11.8,13,17.6,45.1,17.6C2221.7,513.9,2238.1,511.2,2238.1,497.8z M2203.7,335.3c0-28.7-3.1-36.7-14.5-36.7s-14.5,8-14.5,36.7
		s3.1,36.7,14.5,36.7S2203.7,364,2203.7,335.3z"/>
	<path class="st1" d="M2316.1,504.3c21.4,0,34.4-3.8,34.4-19.5c0-9.6-3.4-21-8-36.3l-54.3-185.4h63.8l27.1,117l18.7-117h63.8
		l-50.1,224.4c-11.1,49.7-39.8,63.5-78.7,63.5h-16.8V504.3z"/>
	<path class="st1" d="M1393,844.1v-112c0-64.6,23.7-103.6,95.6-103.6c71.9,0,92.5,37.8,92.5,89.4v27.5h-74.5v-33.6
		c0-13.4-0.4-31-18-31c-17.6,0-18.7,17.6-18.7,31V864c0,13.8,1.5,31,18.7,31c17.6,0,18-17.6,18-31v-35.2h74.5v27.5
		c0,51.6-20.6,91.4-92.5,91.4C1416.7,947.7,1393,908.3,1393,844.1z"/>
	<path class="st1" d="M1609.3,877v-89.4c0-47.8,34-69.9,80.7-69.9c46.6,0,81.4,22.2,81.4,69.9V877c0,47.8-34.8,70-81.4,70
		C1643.4,947,1609.3,924.8,1609.3,877z M1704.1,882v-99.4c0-14.5-4.6-20.3-13.8-20.3c-8.8,0-13.8,6.1-13.8,20.3V882
		c0,14.1,5,20.3,13.8,20.3C1699.6,902.2,1704.1,896.5,1704.1,882z"/>
	<path class="st1" d="M1804.3,639.6h69.2v43.6h-69.2V639.6z M1804.7,721.8h68.8v220.9h-68.8V721.8z"/>
	<path class="st1" d="M1910.6,721.8h68.4V744c16.8-16.8,34-26.4,53.1-26.4c27.1,0,43.2,21.8,43.2,53.5v171.6h-68.4V779.1
		c0-9.2-2.7-13.8-10.7-13.8c-4.2,0-10.3,1.9-17.2,6.1v171.2h-68.4V721.8z"/>
	<path class="st1" d="M2220.2,633.1h82.6l27.9,159.4l31.3-159.4h79.1l5.4,309.6h-52.7l-6.1-200.7l-31.3,200.7h-48.5l-34-202.6
		l-5,202.6h-53.5L2220.2,633.1z"/>
	<path class="st1" d="M2480.9,892.3c0-55,52.4-72.6,92.1-86v-24.1c0-6.9-2.3-13.8-10.3-13.8c-8.8,0-10.3,6.5-11.1,13.8l-1.9,17.6
		l-63.1-2.7c2.7-54.3,29.1-79.5,82.6-79.5c45.1,0,68.8,28.7,68.8,65.7v103.6c0,29.8,2.3,46.3,3.8,55.8H2581c-1.9-13-4.6-30.6-5-31
		c-5.4,18.7-19.1,35.2-41.7,35.2C2498.5,947,2480.9,917.9,2480.9,892.3z M2573,893.8v-60c-19.1,11.1-31.3,24.8-31.3,46.3
		c0,14.1,6.1,22.6,16.4,22.6C2564.6,902.6,2568.8,899.6,2573,893.8z"/>
	<path class="st1" d="M2675.4,721.8h68.4V760c13.4-24.8,25.2-40.9,47-40.9c4.2,0,7.6,0.4,10.3,1.1v67.3c-5.7-2.7-11.8-4.6-19.5-4.6
		c-15.3,0-27.9,9.2-37.8,21.4v138.4h-68.4V721.8z"/>
	<path class="st1" d="M2828,633.1h67.7v168.2l52.7-79.5h78l-60.8,91.7l60.4,129.2h-76.1l-38.2-102.8l-16.1,19.1v83.7H2828V633.1z"/>
	<path class="st1" d="M3040.5,877v-89.4c0-44.3,33.3-69.9,79.9-69.9c47,0,76.8,22.6,76.8,67.3v52h-89.1v42
		c0,14.5,5.7,19.5,12.2,19.5s14.1-2.7,14.1-17.2v-26.4h62.7v25.6c0,44.7-30.6,66.5-76.8,66.5C3073.7,947,3040.5,921.3,3040.5,877z
		 M3134.5,805.9v-22.6c0-14.9-7.6-17.2-14.1-17.2c-6.1,0-12.2,4.2-12.2,19.1v20.6H3134.5z"/>
	<path class="st1" d="M3235.1,879.7V766.5h-20.6v-44.7h20.6v-68h69.6v68h30.2v44.7h-30.2v105.9c0,11.5,9.6,16.4,19.5,16.4
		c7.3,0,12.6-0.8,17.2-1.9v54.7c-5.7,1.1-23.7,3.4-40.1,3.4C3246.9,945,3235.1,921.7,3235.1,879.7z"/>
</g>
<g>
	<path class="st1" d="M271.1,374.2H445v61h-83v83h61.9v63.3H362v103.7h83.5v60.5H271.1V374.2z"/>
	<path class="st1" d="M477.1,627.4V493c0-77.5,28.4-124.3,114.7-124.3c86.2,0,111,45.4,111,107.3v33h-89.4v-40.4
		c0-16.1-0.5-37.2-21.6-37.2c-21.1,0-22.5,21.1-22.5,37.2v182.6c0,16.5,1.8,37.2,22.5,37.2c21.1,0,21.6-21.1,21.6-37.2V609h89.4v33
		c0,61.9-24.8,109.6-111,109.6C505.5,751.7,477.1,704.4,477.1,627.4z"/>
	<path class="st1" d="M750.9,374.2H850l33.5,191.3l37.6-191.3h94.9l6.4,371.5h-63.3l-7.3-240.8l-37.6,240.8H856l-40.8-243.1
		l-6,243.1H745L750.9,374.2z"/>
</g>
</svg>
